{"title":"The.Hole.2009.720p.BRRip.H264.Feel-Free","uid":5969267,"size":1365177750,"categoryP":"video","categoryS":"hd___movies","magnet":"?xt=urn:btih:b9bf6b88f8ff1d9bda502a79b296d5321a144ab5&amp;dn=The.Hole.2009.720p.BRRip.H264.Feel-Free&amp;tr=udp%3A%2F%2Ftracker.openbittorrent.com%3A80&amp;tr=udp%3A%2F%2Fopen.demonii.com%3A1337&amp;tr=udp%3A%2F%2Ftracker.coppersurfer.tk%3A6969&amp;tr=udp%3A%2F%2Fexodus.desync.com%3A6969","seeders":1,"leechers":0,"uploader":"deffjam555","files":10,"time":1290217999,"description":"Genre:Horror | Thriller\nLanguage:English\nIMDb:http://www.imdb.com/title/tt1085779/\nSource:720p.BluRay.X264-AMIABLE\n\nGeneral\nComplete name :The.Hole.2009.720p.BRRip.H264.Feel-Free\nFormat : MPEG-4\nFormat profile : Base Media\nCodec ID : mp42\nFile size : 1.27 GiB\nDuration : 1h 32mn\nOverall bit rate : 1 963 Kbps\nVideo #1\nID : 1\nFormat : AVC\nFormat/Info : Advanced Video Codec\nFormat profile : &lt;a class=&quot;__cf_email__&quot; href=&quot;/cdn-cgi/l/email-protection&quot; data-cfemail=&quot;1b567a72755b572e352a&quot;&gt;[email&amp;#160;protected]&lt;/a&gt;&lt;script cf-hash='f9e31' type=&quot;text/javascript&quot;&gt;\n/* &lt;![CDATA[ */!function(){try{var t=&quot;currentScript&quot;in document?document.currentScript:function(){for(var t=document.getElementsByTagName(&quot;script&quot;),e=t.length;e--;)if(t[e].getAttribute(&quot;cf-hash&quot;))return t[e]}();if(t&amp;&amp;t.previousSibling){var e,r,n,i,c=t.previousSibling,a=c.getAttribute(&quot;data-cfemail&quot;);if(a){for(e=&quot;&quot;,r=parseInt(a.substr(0,2),16),n=2;a.length-n;n+=2)i=parseInt(a.substr(n,2),16)^r,e+=String.fromCharCode(i);e=document.createTextNode(e),c.parentNode.replaceChild(e,c)}}}catch(u){}}();/* ]]&gt; */&lt;/script&gt;\nFormat settings, CABAC : Yes\nFormat settings, ReFrames : 1 frame\nCodec ID : avc1\nCodec ID/Info : Advanced Video Coding\nDuration : 1h 32mn\nBit rate mode : Variable\nBit rate : 1 482 Kbps\nWidth : 1 280 pixels\nHeight : 688 pixels\nDisplay aspect ratio : 1.860\nFrame rate mode : Constant\nFrame rate : 23.976 fps\nResolution : 24 bits\nColorimetry : 4:2:0\nScan type : Progressive\nBits/(Pixel*Frame) : 0.070\nStream size : 979 MiB (76%)\nAudio #2\nID : 2\nFormat : AAC\nFormat/Info : Advanced Audio Codec\nFormat version : Version 4\nFormat profile : LC\nFormat settings, SBR : No\nCodec ID : 40\nDuration : 1h 32mn\nBit rate mode : Constant\nBit rate : 476 Kbps\nNominal bit rate : 480 Kbps\nChannel(s) : 6 channels\nChannel positions : Front: L C R, Rear: L R, LFE\nSampling rate : 48.0 KHz\nResolution : 16 bits\nStream size : 314 MiB (24%)\n\nPlot:\nA pair of brothers stumble upon a mysterious hole in their basement that leads to the darkest corridors of their fears and nightmares.\n\n\nscreens\n &lt;a href=&quot;\nhttp://rapidhdd.com/images/713451vlcsnap-2010-11-19-21h06m28s177.png&quot; rel=&quot;nofollow&quot; target=&quot;_NEW&quot;&gt;\nhttp://rapidhdd.com/images/713451vlcsnap-2010-11-19-21h06m28s177.png&lt;/a&gt; &lt;a href=&quot;\nhttp://www.rapidhdd.com/images/433431vlcsnap-2010-11-19-21h13m58s60.png&quot; rel=&quot;nofollow&quot; target=&quot;_NEW&quot;&gt;\nhttp://www.rapidhdd.com/images/433431vlcsnap-2010-11-19-21h13m58s60.png&lt;/a&gt; &lt;a href=&quot;\nhttp://www.rapidhdd.com/images/682938vlcsnap-2010-11-19-21h07m16s144.png&quot; rel=&quot;nofollow&quot; target=&quot;_NEW&quot;&gt;\nhttp://www.rapidhdd.com/images/682938vlcsnap-2010-11-19-21h07m16s144.png&lt;/a&gt; &lt;a href=&quot;\nhttp://www.rapidhdd.com/images/502208vlcsnap-2010-11-19-21h14m57s136.png&quot; rel=&quot;nofollow&quot; target=&quot;_NEW&quot;&gt;\nhttp://www.rapidhdd.com/images/502208vlcsnap-2010-11-19-21h14m57s136.png&lt;/a&gt; &lt;a href=&quot;\nhttp://www.rapidhdd.com/images/531730vlcsnap-2010-11-19-21h12m43s88.png&quot; rel=&quot;nofollow&quot; target=&quot;_NEW&quot;&gt;\nhttp://www.rapidhdd.com/images/531730vlcsnap-2010-11-19-21h12m43s88.png&lt;/a&gt;","torrent":{"xt":"urn:btih:b9bf6b88f8ff1d9bda502a79b296d5321a144ab5","amp;dn":"The.Hole.2009.720p.BRRip.H264.Feel-Free","amp;tr":["udp%3A%2F%2Ftracker.openbittorrent.com%3A80","udp%3A%2F%2Fopen.demonii.com%3A1337","udp%3A%2F%2Ftracker.coppersurfer.tk%3A6969","udp%3A%2F%2Fexodus.desync.com%3A6969"],"infoHash":"b9bf6b88f8ff1d9bda502a79b296d5321a144ab5","infoHashBuffer":{"type":"Buffer","data":[185,191,107,136,248,255,29,155,218,80,42,121,178,150,213,50,26,20,74,181]},"announce":[],"urlList":[]}}